<svg width="214" height="150" viewBox="0 0 214 150" fill="none" xmlns="http://www.w3.org/2000/svg">
<g clip-path="url(#clip0_36_3)">
<path d="M69.6348 74.4658C69.6348 44.4279 84.1501 17.756 106.599 0.991263V147.94C84.1501 131.175 69.6348 104.504 69.6348 74.4658ZM144.563 74.4679C144.563 104.506 130.048 131.178 107.599 147.942V0.993166C130.048 17.7578 144.563 44.4299 144.563 74.4679Z" fill="#8CA5FF" fill-opacity="0.5" stroke="#8CA5FF"/>
<mask id="path-2-inside-1_36_3" fill="white">
<path fill-rule="evenodd" clip-rule="evenodd" d="M31.7791 19.7949C20.306 45.7894 21.0063 76.6716 36.3909 103.136C51.7755 129.6 78.3548 145.644 106.759 148.773L31.7791 19.7949ZM106.947 74.8836C105.546 71.6831 103.947 68.5282 102.148 65.4336C86.7638 38.9694 60.1846 22.926 31.7807 19.7965L106.76 148.775C106.811 148.659 106.862 148.542 106.913 148.426C106.975 148.568 107.037 148.71 107.1 148.852L182.079 19.874C153.675 23.0034 127.096 39.0469 111.712 65.5111C109.927 68.5806 108.34 71.7096 106.947 74.8836ZM107.099 148.854C135.503 145.725 162.083 129.681 177.467 103.217C192.852 76.7528 193.552 45.8707 182.079 19.8761L107.099 148.854Z"/>
</mask>
<path fill-rule="evenodd" clip-rule="evenodd" d="M31.7791 19.7949C20.306 45.7894 21.0063 76.6716 36.3909 103.136C51.7755 129.6 78.3548 145.644 106.759 148.773L31.7791 19.7949ZM106.947 74.8836C105.546 71.6831 103.947 68.5282 102.148 65.4336C86.7638 38.9694 60.1846 22.926 31.7807 19.7965L106.76 148.775C106.811 148.659 106.862 148.542 106.913 148.426C106.975 148.568 107.037 148.71 107.1 148.852L182.079 19.874C153.675 23.0034 127.096 39.0469 111.712 65.5111C109.927 68.5806 108.34 71.7096 106.947 74.8836ZM107.099 148.854C135.503 145.725 162.083 129.681 177.467 103.217C192.852 76.7528 193.552 45.8707 182.079 19.8761L107.099 148.854Z" fill="#8CA5FF" fill-opacity="0.56"/>
<path d="M31.7791 19.7949L32.6436 19.2923L31.657 17.5951L30.8642 19.3911L31.7791 19.7949ZM36.3909 103.136L35.5264 103.639L35.5264 103.639L36.3909 103.136ZM106.759 148.773L106.649 149.767L108.62 149.984L107.624 148.27L106.759 148.773ZM106.947 74.8836L106.031 75.2846L106.946 77.3746L107.863 75.2855L106.947 74.8836ZM102.148 65.4336L101.283 65.9362L101.283 65.9362L102.148 65.4336ZM31.7807 19.7965L31.8902 18.8025L29.92 18.5854L30.9162 20.2991L31.7807 19.7965ZM106.76 148.775L105.895 149.278L106.884 150.978L107.675 149.177L106.76 148.775ZM106.913 148.426L107.829 148.026L106.916 145.934L105.998 148.024L106.913 148.426ZM107.1 148.852L106.186 149.258L106.98 151.048L107.965 149.355L107.1 148.852ZM182.079 19.874L182.944 20.3766L183.94 18.6629L181.969 18.88L182.079 19.874ZM111.712 65.5111L112.576 66.0138L112.577 66.0137L111.712 65.5111ZM107.099 148.854L106.234 148.351L105.238 150.065L107.208 149.848L107.099 148.854ZM177.467 103.217L176.602 102.714L176.602 102.714L177.467 103.217ZM182.079 19.8761L182.994 19.4723L182.201 17.6763L181.214 19.3735L182.079 19.8761ZM30.8642 19.3911C19.2674 45.666 19.9742 76.886 35.5264 103.639L37.2554 102.633C22.0384 76.4572 21.3446 45.9128 32.6939 20.1987L30.8642 19.3911ZM35.5264 103.639C51.0781 130.39 77.9454 146.605 106.649 149.767L106.868 147.779C78.7642 144.683 52.4729 128.81 37.2554 102.633L35.5264 103.639ZM107.624 148.27L32.6436 19.2923L30.9146 20.2975L105.894 149.276L107.624 148.27ZM107.863 74.4826C106.447 71.2472 104.831 68.0584 103.013 64.931L101.283 65.9362C103.063 68.998 104.645 72.119 106.031 75.2846L107.863 74.4826ZM103.013 64.931C87.4612 38.1793 60.594 21.965 31.8902 18.8025L31.6712 20.7905C59.7752 23.8869 86.0664 39.7595 101.283 65.9362L103.013 64.931ZM30.9162 20.2991L105.895 149.278L107.625 148.272L32.6452 19.2939L30.9162 20.2991ZM107.675 149.177C107.701 149.119 107.727 149.06 107.753 149.002C107.778 148.943 107.803 148.886 107.828 148.828L105.998 148.024C105.972 148.082 105.946 148.141 105.92 148.199C105.895 148.258 105.87 148.315 105.845 148.373L107.675 149.177ZM105.997 148.826C106.058 148.968 106.122 149.112 106.186 149.258L108.014 148.446C107.952 148.308 107.892 148.168 107.829 148.026L105.997 148.826ZM107.965 149.355L182.944 20.3766L181.214 19.3714L106.235 148.349L107.965 149.355ZM181.969 18.88C153.266 22.0424 126.399 38.2568 110.847 65.0085L112.577 66.0137C127.793 39.837 154.084 23.9643 182.189 20.868L181.969 18.88ZM110.848 65.0084C109.044 68.1105 107.439 71.2732 106.031 74.4817L107.863 75.2855C109.241 72.146 110.81 69.0506 112.576 66.0138L110.848 65.0084ZM107.208 149.848C135.912 146.686 162.78 130.471 178.332 103.72L176.602 102.714C161.386 128.891 135.094 144.764 106.989 147.86L107.208 149.848ZM178.332 103.72C193.884 76.9672 194.591 45.7473 182.994 19.4723L181.164 20.2799C192.513 45.9941 191.82 76.5384 176.602 102.714L178.332 103.72ZM181.214 19.3735L106.234 148.351L107.964 149.357L182.944 20.3787L181.214 19.3735Z" fill="#B4C4FF" mask="url(#path-2-inside-1_36_3)"/>
<path d="M186.406 122.59C165.02 143.831 135.766 152.498 107.957 148.59L212.582 44.6819C216.519 72.298 207.793 101.351 186.406 122.59ZM133.422 69.9768C154.809 48.7369 184.062 40.0698 211.871 43.9779L106.792 148.336L106.644 148.483V148.502C78.6556 152.62 49.1345 143.982 27.5941 122.589C6.04922 101.192 -2.6464 71.8673 1.50683 44.0693C29.502 39.9421 59.0338 48.5794 80.5806 69.9784C94.8952 84.1949 103.537 101.91 106.507 120.351H107.495C110.465 101.909 119.108 84.1937 133.422 69.9768Z" fill="#8CA5FF" fill-opacity="0.25" stroke="#B4C4FF"/>
</g>
<defs>
<clipPath id="clip0_36_3">
<rect width="214" height="150" fill="white"/>
</clipPath>
</defs>
</svg>
