<svg width="410" height="404" viewBox="0 0 410 404" fill="none" xmlns="http://www.w3.org/2000/svg">
<path d="M204.871 79.6512L205.223 77.6824L204.871 79.6512C206.281 79.9032 207.725 79.9008 209.134 79.6439L208.776 77.6763L209.135 79.6439L389.477 46.7734C396.134 45.5602 401.197 52.6436 397.895 58.5484L213.897 387.569C210.858 393.003 203.05 393.035 199.965 387.627C199.965 387.627 199.965 387.627 199.965 387.627L12.3189 58.5656C8.95828 52.6722 13.9977 45.5337 20.6761 46.7274C20.6761 46.7274 20.6761 46.7274 20.6761 46.7274L204.871 79.6512Z" fill="#8CA5FF" fill-opacity="0.25" stroke="#8CA5FF" stroke-width="4"/>
<path d="M157.186 30.2179L157.186 30.2179C155.843 30.481 154.849 31.6187 154.768 32.9846L157.186 30.2179ZM157.186 30.2179L293.35 3.53707C295.552 3.10559 297.431 5.1559 296.809 7.31256C296.809 7.31267 296.809 7.31278 296.809 7.31289L271.34 95.6039C269.891 100.627 274.26 105.407 279.393 104.418L279.393 104.418L318.415 96.8866C320.859 96.415 322.781 98.952 321.666 101.176L323.454 102.072L321.666 101.176L210.761 322.506L208.813 325.516L210.492 326.603L208.813 325.517C207.009 328.304 202.685 326.531 203.357 323.28L201.398 322.875L203.357 323.28L221.256 236.647C222.331 231.445 217.447 226.99 212.366 228.532L212.366 228.532L188.951 235.646C188.951 235.646 188.951 235.646 188.951 235.646C186.776 236.307 184.685 234.402 185.14 232.175L196.402 177.022C197.423 172.028 192.936 167.655 187.971 168.8L187.97 168.8L150.061 177.549C150.06 177.549 150.06 177.549 150.06 177.549C148.109 177.999 146.273 176.448 146.392 174.448C146.392 174.448 146.392 174.448 146.392 174.448L154.767 32.9848L157.186 30.2179Z" fill="#8CA5FF" fill-opacity="0.25" stroke="#8CA5FF" stroke-width="4"/>
</svg>
